<svg id="eOS5ZatbzWj1" xmlns="http://www.w3.org/2000/svg" xmlns:xlink="http://www.w3.org/1999/xlink" viewBox="0 0 256 256" shape-rendering="geometricPrecision" text-rendering="geometricPrecision"><rect width="133.781262" height="66.842852" rx="6" ry="6" transform="matrix(1.721801-.319591 0.383815 2.067804 0.000062 80.268712)" fill="#d2eddd" stroke="#000" stroke-linejoin="round"/><rect width="133.781262" height="66.842852" rx="6" ry="6" transform="matrix(1.742065-.178736 0.214653 2.09214 7.016055 67.594762)" fill="#e6d2ed" stroke="#000" stroke-linejoin="round"/><rect width="133.781262" height="66.842852" rx="6" ry="6" transform="matrix(1.75121 0 0 2.103123 13.57835 55.271963)" fill="#d2dbed" stroke="#000"/><line x1="-12.8" y1="0" x2="12.8" y2="0" transform="matrix(7.783348 0 0-1 128.000031 175.731288)" fill="none" stroke="rgba(63,87,135,0.54)" stroke-width="2"/><line x1="-12.8" y1="0" x2="12.8" y2="0" transform="matrix(7.783348 0 0-1 128.000031 162.034635)" fill="none" stroke="rgba(63,87,135,0.54)" stroke-width="2"/><line x1="-12.8" y1="0" x2="12.8" y2="0" transform="matrix(7.783348 0 0-1 128.000031 149.377665)" fill="none" stroke="rgba(63,87,135,0.54)" stroke-width="2"/><line x1="-12.8" y1="0" x2="12.8" y2="0" transform="matrix(7.783348 0 0-1 128.000031 137.517069)" fill="none" stroke="rgba(63,87,135,0.54)" stroke-width="2"/><line x1="-12.8" y1="0" x2="12.8" y2="0" transform="matrix(7.783348 0 0-1 128.000031 125.561333)" fill="none" stroke="rgba(63,87,135,0.54)" stroke-width="2"/><line x1="-12.8" y1="0" x2="12.8" y2="0" transform="matrix(4.653465 0 0-1 128.000022 80.268712)" fill="none" stroke="rgba(135,63,91,0.54)" stroke-width="3"/></svg>
